<svg width="65" height="55" viewBox="0 0 65 55" fill="none" xmlns="http://www.w3.org/2000/svg">
<path d="M7.17044 7.18775C7.0478 3.44828 9.79164 0 13.5004 0H51.5042C55.2131 0 57.9569 3.44828 57.8343 7.18775C57.7164 10.7799 57.8694 15.433 58.9723 19.2271C60.0787 23.0329 61.9444 25.4384 65 25.7475V29.2525C61.9444 29.5616 60.0787 31.9671 58.9723 35.7729C57.8694 39.567 57.7164 44.2201 57.8343 47.8124C57.9569 51.5517 55.2131 55 51.5042 55H13.5004C9.79164 55 7.0478 51.5517 7.17057 47.8124C7.28825 44.2201 7.13527 39.567 6.0323 35.7729C4.92603 31.9671 3.05576 29.5616 0 29.2525V25.7475C3.05563 25.4384 4.92603 23.0329 6.0323 19.2271C7.13527 15.433 7.28825 10.7799 7.17044 7.18775Z" fill="url(#paint0_linear_34_485)"/>
<defs>
<linearGradient id="paint0_linear_34_485" x1="9.65847" y1="1.45561" x2="69.0538" y2="45.8578" gradientUnits="userSpaceOnUse">
<stop stop-color="#3C3D43"/>
<stop offset="1" stop-color="#3C3D43"/>
</linearGradient>
</defs>
</svg>
