<svg width="40" height="55" viewBox="0 0 40 55" fill="none" xmlns="http://www.w3.org/2000/svg">
<path d="M9.432 55C4.27733 55 0.0986671 51.2528 0.0986671 46.6304C0.0986671 42.008 4.27733 38.2609 9.432 38.2609H18.7653V46.6304C18.7653 51.2528 14.5867 55 9.432 55ZM30.6667 16.7391H21.3333V0H30.6667C35.8213 0 40 3.74717 40 8.36957C40 12.992 35.8213 16.7391 30.6667 16.7391ZM9.33333 16.7391H18.6667V0H9.33333C4.17867 0 0 3.74717 0 8.36957C0 12.992 4.17867 16.7391 9.33333 16.7391ZM9.33333 35.8696H18.6667V19.1304H9.33333C4.17867 19.1304 0 22.8776 0 27.5C0 32.1224 4.17867 35.8696 9.33333 35.8696ZM29.3333 19.1304C27.2116 19.1304 25.1768 19.8863 23.6765 21.2316C22.1762 22.577 21.3333 24.4017 21.3333 26.3043C21.3333 28.207 22.1762 30.0317 23.6765 31.3771C25.1768 32.7224 27.2116 33.4783 29.3333 33.4783C31.4551 33.4783 33.4899 32.7224 34.9902 31.3771C36.4905 30.0317 37.3333 28.207 37.3333 26.3043C37.3333 24.4017 36.4905 22.577 34.9902 21.2316C33.4899 19.8863 31.4551 19.1304 29.3333 19.1304Z" fill="#F7F9F9"/>
</svg>
