<svg width="55" height="55" viewBox="0 0 55 55" fill="none" xmlns="http://www.w3.org/2000/svg">
<path d="M0 27.5V0H27.5H55V27.5V55H27.5H0V27.5ZM24.0773 50.4667C27.3848 49.8951 29.3768 47.7801 29.8194 44.3701C29.8639 44.0271 29.896 39.9622 29.8974 34.4832L29.8999 25.1788H27.3426H24.7854L24.784 33.9717C24.7832 39.2345 24.7513 43.0627 24.7045 43.507C24.5495 44.9785 23.9993 45.6947 22.8341 45.9417C21.1837 46.2915 19.9546 45.6293 18.9456 43.8466C18.817 43.6194 18.6746 43.4335 18.6291 43.4335C18.5547 43.4335 14.6873 45.7374 14.5305 45.8752C14.3669 46.0189 15.3463 47.5171 16.1099 48.2912C17.985 50.1921 20.9622 51.005 24.0773 50.4667H24.0773ZM43.8662 50.5072C45.9694 50.2422 47.6836 49.4296 48.9402 48.1021C49.4551 47.5582 49.6485 47.2793 49.9597 46.6321C50.4709 45.5692 50.5975 45.0316 50.6481 43.7089C50.7396 41.3147 50.107 39.6214 48.5739 38.1568C47.4749 37.1069 46.0892 36.296 43.4728 35.1714C40.7895 34.018 39.964 33.4906 39.5707 32.6781C39.2976 32.1139 39.3117 31.2611 39.6041 30.6657C40.0371 29.7839 40.8728 29.3766 42.1052 29.4468C43.2795 29.5138 44.0983 30.0089 44.8132 31.0843L45.1699 31.6208L46.9717 30.4653C47.9627 29.8297 48.8643 29.2389 48.9751 29.1524L49.1768 28.995L48.7326 28.3365C47.6189 26.6856 46.1449 25.6376 44.2828 25.1725C43.3423 24.9376 41.2318 24.8768 40.2074 25.0551C38.5198 25.3488 37.3254 25.9407 36.226 27.0279C35.2309 28.012 34.6929 28.997 34.4141 30.345C34.2178 31.2945 34.2968 33.0969 34.5756 34.0269C35.2884 36.4046 36.8898 37.9368 40.1809 39.3897C40.823 39.6731 41.8257 40.1162 42.4092 40.3743C44.7602 41.414 45.5048 42.1593 45.5048 43.4728C45.5048 44.688 44.7309 45.5336 43.2705 45.9142C42.4883 46.118 40.9965 46.046 40.1773 45.7649C39.0609 45.3818 37.9916 44.5197 37.2567 43.4105C37.0449 43.0908 36.9187 42.9686 36.8339 43.0012C36.5899 43.0948 32.7325 45.3547 32.7325 45.404C32.7325 45.5844 33.9203 47.1982 34.4309 47.7114C36.6951 49.9875 40.0656 50.9862 43.8662 50.5072Z" fill="#F7F9F9"/>
</svg>
